<svg width="32" height="33" viewBox="0 0 32 33" fill="none" xmlns="http://www.w3.org/2000/svg">
<g id="Icon">
<path id="Icon_2" d="M14.491 7.27212C14.8719 6.24263 16.3281 6.24262 16.709 7.27212L18.6051 12.3963C18.7249 12.7199 18.9801 12.9751 19.3037 13.0949L24.4279 14.991C25.4574 15.3719 25.4574 16.8281 24.4279 17.209L19.3037 19.1051C18.9801 19.2249 18.7249 19.4801 18.6051 19.8037L16.709 24.9279C16.3281 25.9574 14.8719 25.9574 14.491 24.9279L12.5949 19.8037C12.4751 19.4801 12.2199 19.2249 11.8963 19.1051L6.77212 17.209C5.74263 16.8281 5.74262 15.3719 6.77212 14.991L11.8963 13.0949C12.2199 12.9751 12.4751 12.7199 12.5949 12.3963L14.491 7.27212Z" stroke="black" stroke-width="1.5" stroke-linejoin="round"/>
</g>
</svg>
